# xmcd CD database file
#
# Track frame offsets:
#	150
#	19795
#	37785
#	59370
#	78035
#	100045
#	116525
#	140870
#
# Disc length: 2125 seconds
#
# Revision: 5
# Processed by: cddbd v1.5.2PL0 Copyright (c) Steve Scherf et al.
# Submitted via: CDex 1.70beta3
#
DISCID=5b084b08
DTITLE=Jackson Browne - Lawyers In Love
DYEAR=1983
DGENRE=West Coast Rock
TTITLE0=Lawyers In Love
TTITLE1=On The Day
TTITLE2=Cut It Away
TTITLE3=Downtown
TTITLE4=Tender Is The Night
TTITLE5=Knock On Any Door
TTITLE6=Say It Isn't True
TTITLE7=For A Rocker
EXTD=YEAR: 1983
EXTT0=
EXTT1=
EXTT2=
EXTT3=
EXTT4=
EXTT5=
EXTT6=
EXTT7=
PLAYORDER=
